<?xml version="1.0" encoding="UTF-8"?>
<!DOCTYPE svg PUBLIC "-//W3C//DTD SVG 1.1//EN" "http://www.w3.org/Graphics/SVG/1.1/DTD/svg11.dtd">
<svg xmlns="http://www.w3.org/2000/svg" version="1.1" width="1920px" height="1080px" style="shape-rendering:geometricPrecision; text-rendering:geometricPrecision; image-rendering:optimizeQuality; fill-rule:evenodd; clip-rule:evenodd" xmlns:xlink="http://www.w3.org/1999/xlink">
<g><path style="opacity:1" fill="#000000" d="M -0.5,-0.5 C 639.5,-0.5 1279.5,-0.5 1919.5,-0.5C 1919.5,226.5 1919.5,453.5 1919.5,680.5C 1739.5,680.333 1559.5,680.5 1379.5,681C 1374.83,685 1370.17,689 1365.5,693C 1357.71,701.94 1349.71,710.606 1341.5,719C 1334.18,722.662 1326.52,725.328 1318.5,727C 1309.5,726.667 1300.5,726.333 1291.5,726C 1273.85,734.49 1256.52,743.49 1239.5,753C 1222.22,765.281 1205.22,777.948 1188.5,791C 1182.8,793.733 1176.8,794.9 1170.5,794.5C 1163.26,793.059 1155.93,792.559 1148.5,793C 1141.41,795.376 1135.08,799.043 1129.5,804C 1122.47,805.571 1115.47,807.071 1108.5,808.5C 1108.5,806.5 1108.5,804.5 1108.5,802.5C 1090.87,798.707 1073.2,795.04 1055.5,791.5C 1055.67,804.837 1055.5,818.171 1055,831.5C 1054.73,833.101 1054.23,834.601 1053.5,836C 1050.57,837.145 1047.57,837.978 1044.5,838.5C 1040.31,823.084 1035.81,807.75 1031,792.5C 1018.66,808.335 1006.16,824.002 993.5,839.5C 981.709,821.418 970.042,803.252 958.5,785C 995.213,792.043 1028.88,785.043 1059.5,764C 1069.46,756.377 1079.12,748.377 1088.5,740C 1107.95,734.404 1127.29,728.404 1146.5,722C 1183.51,707.521 1199.67,680.354 1195,640.5C 1192.98,625.407 1190.48,610.407 1187.5,595.5C 1193.41,593.876 1199.41,593.376 1205.5,594C 1210.78,594.615 1214.28,597.449 1216,602.5C 1216.11,619.271 1217.44,635.937 1220,652.5C 1222.7,662.528 1228.86,669.361 1238.5,673C 1254.95,674.022 1271.29,673.022 1287.5,670C 1307.69,665.287 1327.69,659.954 1347.5,654C 1348.67,653.5 1349.5,652.667 1350,651.5C 1389.99,526.77 1373.66,410.104 1301,301.5C 1292.71,290.213 1284.05,279.213 1275,268.5C 1274.51,280.633 1268.68,289.133 1257.5,294C 1226.37,303.267 1195.37,312.933 1164.5,323C 1145.79,330.702 1134.96,344.536 1132,364.5C 1125.16,379.67 1114.5,391.337 1100,399.5C 1102.09,410.455 1105.43,421.122 1110,431.5C 1143.87,485.427 1168.2,543.427 1183,605.5C 1187.97,627.725 1188.64,650.058 1185,672.5C 1178.08,694.417 1163.92,709.583 1142.5,718C 1122.9,725.091 1102.9,730.757 1082.5,735C 1066.55,750.31 1048.55,762.643 1028.5,772C 1017.3,775.728 1005.8,777.561 994,777.5C 973.208,776.422 952.708,773.422 932.5,768.5C 906.275,772.594 879.942,773.427 853.5,771C 831.028,765.096 810.362,755.43 791.5,742C 762.295,713.752 745.795,679.252 742,638.5C 741.333,632.167 741.333,625.833 742,619.5C 746.967,599.102 750.3,578.435 752,557.5C 752.667,525.833 752.667,494.167 752,462.5C 751.721,449.124 750.887,435.79 749.5,422.5C 718.798,427.175 688.798,434.675 659.5,445C 632.351,452.291 605.018,453.291 577.5,448C 563.741,441.985 557.574,431.485 559,416.5C 560.94,409.953 563.94,403.953 568,398.5C 577.94,386.438 589.106,375.605 601.5,366C 621.115,352.052 640.448,337.719 659.5,323C 666.704,314.129 674.871,306.295 684,299.5C 685,297.833 686,296.167 687,294.5C 687.153,280.88 691.153,268.546 699,257.5C 708.833,248.333 718.667,239.167 728.5,230C 736.5,225.333 744.5,220.667 752.5,216C 756.505,208.161 760.672,200.328 765,192.5C 774.86,182.503 785.693,173.836 797.5,166.5C 807.096,161.559 816.429,156.225 825.5,150.5C 833.55,147.205 841.883,144.372 850.5,142C 858.897,141.622 867.231,141.955 875.5,143C 881.743,139.762 887.743,136.095 893.5,132C 899.513,128.609 905.846,126.109 912.5,124.5C 913.766,123.91 915.099,123.41 916.5,123C 913.961,122.204 911.628,122.371 909.5,123.5C 787.342,135.483 687.509,188.483 610,282.5C 528.349,390.1 506.016,509.1 543,639.5C 562.22,700.477 594.054,753.644 638.5,799C 634.273,799.744 630.106,800.578 626,801.5C 625.5,815.496 625.333,829.496 625.5,843.5C 618.743,843.877 612.076,843.377 605.5,842C 600.116,840.616 596.783,837.283 595.5,832C 595.615,830.105 596.282,828.438 597.5,827C 584.973,819.936 571.64,815.269 557.5,813C 540.165,813.106 522.832,813.606 505.5,814.5C 336.836,813.527 168.17,813.194 -0.5,813.5C -0.5,542.167 -0.5,270.833 -0.5,-0.5 Z"/></g>
<g><path style="opacity:1" fill="#6c6c6c" d="M 909.5,123.5 C 911.628,122.371 913.961,122.204 916.5,123C 915.099,123.41 913.766,123.91 912.5,124.5C 911.791,123.596 910.791,123.263 909.5,123.5 Z"/></g>
<g><path style="opacity:1" fill="#fdfcfb" d="M 909.5,123.5 C 910.791,123.263 911.791,123.596 912.5,124.5C 905.846,126.109 899.513,128.609 893.5,132C 887.743,136.095 881.743,139.762 875.5,143C 867.231,141.955 858.897,141.622 850.5,142C 841.883,144.372 833.55,147.205 825.5,150.5C 814.921,153.766 805.588,159.099 797.5,166.5C 785.693,173.836 774.86,182.503 765,192.5C 760.672,200.328 756.505,208.161 752.5,216C 744.5,220.667 736.5,225.333 728.5,230C 718.667,239.167 708.833,248.333 699,257.5C 691.153,268.546 687.153,280.88 687,294.5C 686,296.167 685,297.833 684,299.5C 674.871,306.295 666.704,314.129 659.5,323C 640.448,337.719 621.115,352.052 601.5,366C 589.106,375.605 577.94,386.438 568,398.5C 563.94,403.953 560.94,409.953 559,416.5C 557.574,431.485 563.741,441.985 577.5,448C 605.018,453.291 632.351,452.291 659.5,445C 688.798,434.675 718.798,427.175 749.5,422.5C 750.887,435.79 751.721,449.124 752,462.5C 752.667,494.167 752.667,525.833 752,557.5C 750.3,578.435 746.967,599.102 742,619.5C 741.333,625.833 741.333,632.167 742,638.5C 745.795,679.252 762.295,713.752 791.5,742C 810.362,755.43 831.028,765.096 853.5,771C 879.942,773.427 906.275,772.594 932.5,768.5C 952.708,773.422 973.208,776.422 994,777.5C 1005.8,777.561 1017.3,775.728 1028.5,772C 1048.55,762.643 1066.55,750.31 1082.5,735C 1102.9,730.757 1122.9,725.091 1142.5,718C 1163.92,709.583 1178.08,694.417 1185,672.5C 1188.64,650.058 1187.97,627.725 1183,605.5C 1168.2,543.427 1143.87,485.427 1110,431.5C 1105.43,421.122 1102.09,410.455 1100,399.5C 1114.5,391.337 1125.16,379.67 1132,364.5C 1134.96,344.536 1145.79,330.702 1164.5,323C 1195.37,312.933 1226.37,303.267 1257.5,294C 1268.68,289.133 1274.51,280.633 1275,268.5C 1284.05,279.213 1292.71,290.213 1301,301.5C 1373.66,410.104 1389.99,526.77 1350,651.5C 1349.5,652.667 1348.67,653.5 1347.5,654C 1327.69,659.954 1307.69,665.287 1287.5,670C 1271.29,673.022 1254.95,674.022 1238.5,673C 1228.86,669.361 1222.7,662.528 1220,652.5C 1217.44,635.937 1216.11,619.271 1216,602.5C 1214.28,597.449 1210.78,594.615 1205.5,594C 1199.41,593.376 1193.41,593.876 1187.5,595.5C 1190.48,610.407 1192.98,625.407 1195,640.5C 1199.67,680.354 1183.51,707.521 1146.5,722C 1127.29,728.404 1107.95,734.404 1088.5,740C 1079.12,748.377 1069.46,756.377 1059.5,764C 1028.88,785.043 995.213,792.043 958.5,785C 970.042,803.252 981.709,821.418 993.5,839.5C 1006.16,824.002 1018.66,808.335 1031,792.5C 1035.81,807.75 1040.31,823.084 1044.5,838.5C 1047.57,837.978 1050.57,837.145 1053.5,836C 1054.23,834.601 1054.73,833.101 1055,831.5C 1055.5,818.171 1055.67,804.837 1055.5,791.5C 1073.2,795.04 1090.87,798.707 1108.5,802.5C 1108.5,804.5 1108.5,806.5 1108.5,808.5C 1115.47,807.071 1122.47,805.571 1129.5,804C 1135.08,799.043 1141.41,795.376 1148.5,793C 1155.93,792.559 1163.26,793.059 1170.5,794.5C 1176.8,794.9 1182.8,793.733 1188.5,791C 1205.22,777.948 1222.22,765.281 1239.5,753C 1256.52,743.49 1273.85,734.49 1291.5,726C 1300.5,726.333 1309.5,726.667 1318.5,727C 1326.52,725.328 1334.18,722.662 1341.5,719C 1349.71,710.606 1357.71,701.94 1365.5,693C 1370.17,689 1374.83,685 1379.5,681C 1559.5,680.5 1739.5,680.333 1919.5,680.5C 1919.5,693.833 1919.5,707.167 1919.5,720.5C 1743.83,720.333 1568.17,720.5 1392.5,721C 1384.34,735.496 1372.67,746.163 1357.5,753C 1352.16,755.002 1346.66,756.169 1341,756.5C 1333.84,755.419 1326.68,754.419 1319.5,753.5C 1296.65,756.058 1276.32,764.558 1258.5,779C 1251.46,784.532 1244.79,790.532 1238.5,797C 1239.83,797.667 1241.17,798.333 1242.5,799C 1260.16,797.751 1277.83,796.251 1295.5,794.5C 1294.08,817.207 1292.41,839.874 1290.5,862.5C 1294.45,863.184 1298.45,863.184 1302.5,862.5C 1303.22,840.169 1303.89,817.836 1304.5,795.5C 1322.17,794.87 1339.83,794.204 1357.5,793.5C 1353.67,845.52 1349.5,897.52 1345,949.5C 1330.21,951.953 1315.38,954.287 1300.5,956.5C 1300.59,942.826 1300.93,929.159 1301.5,915.5C 1299.53,915.261 1297.7,915.594 1296,916.5C 1295.71,931.181 1295.21,945.848 1294.5,960.5C 1278.83,960.661 1263.16,960.994 1247.5,961.5C 1246.89,952.179 1246.39,942.845 1246,933.5C 1233.66,953.761 1215.49,963.761 1191.5,963.5C 1175.55,962.856 1160.88,958.19 1147.5,949.5C 1146.95,947.587 1146.78,945.587 1147,943.5C 1139.07,955.557 1127.91,962.723 1113.5,965C 1090.96,969.001 1073.62,961.501 1061.5,942.5C 1049.81,953.527 1038.47,964.86 1027.5,976.5C 1022.18,958.223 1017.01,939.889 1012,921.5C 1005.68,934.803 999.35,948.136 993,961.5C 985.167,947.167 977.333,932.833 969.5,918.5C 964.678,934.788 960.011,951.122 955.5,967.5C 941.356,956.523 927.356,945.357 913.5,934C 912.582,931.867 912.416,929.7 913,927.5C 903.912,941.122 892.079,951.622 877.5,959C 858.151,962.306 838.817,962.14 819.5,958.5C 819.664,955.813 819.497,953.146 819,950.5C 818.51,951.793 818.343,953.127 818.5,954.5C 788.2,956.982 757.867,958.982 727.5,960.5C 727.666,953.825 727.5,947.158 727,940.5C 720.694,949.64 714.194,958.64 707.5,967.5C 696.816,957.648 685.982,947.981 675,938.5C 674.5,947.16 674.334,955.827 674.5,964.5C 659.094,962.966 643.761,960.966 628.5,958.5C 627.605,928.504 626.938,898.504 626.5,868.5C 602.731,870.075 580.397,865.241 559.5,854C 554.889,853.021 550.223,852.521 545.5,852.5C 532.679,853.41 519.845,854.077 507,854.5C 337.837,853.52 168.67,853.186 -0.5,853.5C -0.5,840.167 -0.5,826.833 -0.5,813.5C 168.17,813.194 336.836,813.527 505.5,814.5C 522.832,813.606 540.165,813.106 557.5,813C 571.64,815.269 584.973,819.936 597.5,827C 596.282,828.438 595.615,830.105 595.5,832C 596.783,837.283 600.116,840.616 605.5,842C 612.076,843.377 618.743,843.877 625.5,843.5C 625.333,829.496 625.5,815.496 626,801.5C 630.106,800.578 634.273,799.744 638.5,799C 594.054,753.644 562.22,700.477 543,639.5C 506.016,509.1 528.349,390.1 610,282.5C 687.509,188.483 787.342,135.483 909.5,123.5 Z"/></g>
<g><path style="opacity:1" fill="#fafafa" d="M 977.5,123.5 C 1089.98,130.744 1185.31,174.744 1263.5,255.5C 1255.49,251.712 1246.82,248.546 1237.5,246C 1221.55,243.673 1205.55,241.673 1189.5,240C 1166.14,238.685 1142.81,237.018 1119.5,235C 1099.05,232.521 1080.39,225.521 1063.5,214C 1050.12,198.615 1038.28,182.115 1028,164.5C 1019.17,150.333 1007.67,138.833 993.5,130C 988.475,126.985 983.142,124.818 977.5,123.5 Z"/></g>
<g><path style="opacity:1" fill="#814745" d="M 901.5,135.5 C 902.239,135.369 902.906,135.536 903.5,136C 896.756,144.831 893.089,154.831 892.5,166C 894.847,189.362 904.847,208.695 922.5,224C 944.332,239.821 968.332,244.154 994.5,237C 1009.76,231.958 1023.59,224.458 1036,214.5C 1039.14,210.531 1041.64,206.197 1043.5,201.5C 1050.76,212.929 1060.43,221.763 1072.5,228C 1085.86,234.341 1099.86,238.507 1114.5,240.5C 1120.43,265.47 1136.1,275.97 1161.5,272C 1171.87,269.232 1180.04,263.398 1186,254.5C 1187.2,252.323 1187.7,249.989 1187.5,247.5C 1203.91,248.593 1220.25,250.427 1236.5,253C 1248.14,255.402 1258.3,260.569 1267,268.5C 1268.03,274.951 1265.86,280.118 1260.5,284C 1252.98,288.426 1244.98,291.759 1236.5,294C 1211.18,301.657 1185.85,309.323 1160.5,317C 1141.21,325.294 1129.71,339.794 1126,360.5C 1117.53,379.64 1103.36,392.473 1083.5,399C 1056.21,405.396 1028.54,408.229 1000.5,407.5C 1000.66,406.127 1000.49,404.793 1000,403.5C 975.33,376.493 946.164,369.993 912.5,384C 901.743,390.426 892.576,398.593 885,408.5C 884.51,409.793 884.343,411.127 884.5,412.5C 861.527,409.244 838.527,406.078 815.5,403C 810.833,402.333 806.167,402.333 801.5,403C 768.312,410.976 734.979,418.309 701.5,425C 684.643,429.397 667.976,434.397 651.5,440C 631.348,444.057 611.015,445.39 590.5,444C 584.478,442.993 578.811,440.993 573.5,438C 564.867,429.648 563.367,420.148 569,409.5C 574.474,402.058 580.308,394.891 586.5,388C 612.139,367.516 638.139,347.516 664.5,328C 673.387,317.779 682.887,308.279 693,299.5C 694.231,300.108 695.564,300.441 697,300.5C 706.879,298.905 716.712,297.072 726.5,295C 748.098,288.808 758.431,274.475 757.5,252C 758.131,242.523 755.798,233.856 750.5,226C 759.293,220.616 764.793,212.783 767,202.5C 776.67,189.831 788.503,179.664 802.5,172C 817.666,161.918 833.999,154.251 851.5,149C 860.189,149.123 868.856,149.456 877.5,150C 885.671,145.303 893.671,140.47 901.5,135.5 Z"/></g>
<g><path style="opacity:1" fill="#6b1210" d="M 1032.5,148.5 C 1095.86,160.435 1151.7,187.435 1200,229.5C 1200.49,230.793 1200.66,232.127 1200.5,233.5C 1194.09,232.816 1187.76,231.649 1181.5,230C 1157.74,229.565 1134.07,227.898 1110.5,225C 1099.16,223.491 1088.82,219.491 1079.5,213C 1061.17,196.111 1045.34,177.278 1032,156.5C 1031.28,153.739 1031.44,151.073 1032.5,148.5 Z"/></g>
<g><path style="opacity:1" fill="#61120d" d="M 1033.5,150.5 C 1095.77,162.972 1150.77,189.805 1198.5,231C 1190.99,229.301 1183.32,227.967 1175.5,227C 1153.72,227.248 1132.06,225.914 1110.5,223C 1099.51,221.341 1089.51,217.341 1080.5,211C 1062.75,194.598 1047.25,176.431 1034,156.5C 1033.5,154.527 1033.34,152.527 1033.5,150.5 Z"/></g>
<g><path style="opacity:1" fill="#7f4b49" d="M 825.5,150.5 C 816.429,156.225 807.096,161.559 797.5,166.5C 805.588,159.099 814.921,153.766 825.5,150.5 Z"/></g>
<g><path style="opacity:1" fill="#6b1311" d="M 752.5,189.5 C 755.68,189.176 756.847,190.51 756,193.5C 752.389,199.444 748.389,205.111 744,210.5C 729.407,222.548 714.907,234.714 700.5,247C 693.909,253.587 688.076,260.753 683,268.5C 680.667,275.833 678.333,283.167 676,290.5C 665.915,305.253 653.748,318.086 639.5,329C 619.329,340.1 601.329,354.1 585.5,371C 584.207,371.49 582.873,371.657 581.5,371.5C 581.34,369.801 581.506,368.134 582,366.5C 588.13,351.785 594.464,337.119 601,322.5C 608.231,311.268 616.231,300.601 625,290.5C 642.63,271.531 661.463,254.031 681.5,238C 704.886,221.316 728.552,205.15 752.5,189.5 Z"/></g>
<g><path style="opacity:1" fill="#61120d" d="M 751.5,192.5 C 752.376,192.369 753.043,192.702 753.5,193.5C 749.912,199.01 746.078,204.343 742,209.5C 728.592,220.786 715.092,231.953 701.5,243C 693.197,250.964 686.03,259.797 680,269.5C 678.583,276.336 676.583,283.003 674,289.5C 664.249,303.919 652.416,316.419 638.5,327C 627.328,334.085 616.328,341.419 605.5,349C 598.03,355.468 590.864,362.302 584,369.5C 588.473,359.182 592.473,348.516 596,337.5C 604.352,320.785 614.685,305.452 627,291.5C 642.928,274.568 659.761,258.735 677.5,244C 701.709,226.072 726.376,208.905 751.5,192.5 Z"/></g>
<g><path style="opacity:1" fill="#000000" d="M 1026.5,262.5 C 1048.69,260.086 1069.69,263.92 1089.5,274C 1100.03,284.067 1105.7,296.4 1106.5,311C 1105.97,318.053 1102.64,323.387 1096.5,327C 1079.31,335.283 1061.15,339.116 1042,338.5C 1022.28,338.556 1003.11,335.39 984.5,329C 974.422,323.927 967.589,316.093 964,305.5C 961.91,290.847 967.41,280.013 980.5,273C 986.498,269.5 992.831,266.833 999.5,265C 1008.66,264.221 1017.66,263.388 1026.5,262.5 Z"/></g>
<g><path style="opacity:1" fill="#000000" d="M 774.5,296.5 C 784.172,296.334 793.839,296.5 803.5,297C 811.522,298.345 818.855,301.345 825.5,306C 833.667,312.833 841.167,320.333 848,328.5C 856.385,348.157 850.885,362.324 831.5,371C 810.59,377.511 789.256,379.177 767.5,376C 754.919,373.296 744.419,367.129 736,357.5C 724.359,336.755 728.526,319.922 748.5,307C 756.725,302.042 765.391,298.542 774.5,296.5 Z"/></g>
<g><path style="opacity:1" fill="#6b1411" d="M 1270.5,300.5 C 1271.55,300.351 1272.55,300.517 1273.5,301C 1301.38,328.897 1321.55,361.731 1334,399.5C 1356.09,464.651 1360.42,530.985 1347,598.5C 1343.31,614.575 1339.31,630.575 1335,646.5C 1305.94,662.46 1275.11,667.627 1242.5,662C 1236.66,658.837 1232.82,654.004 1231,647.5C 1229.2,642.322 1228.2,636.989 1228,631.5C 1227.3,619.169 1226.63,606.835 1226,594.5C 1222.89,586.395 1217.39,580.561 1209.5,577C 1206.5,576.333 1203.5,576.333 1200.5,577C 1197.15,579.533 1193.48,581.366 1189.5,582.5C 1187.09,582.594 1185.26,581.594 1184,579.5C 1180.16,564.491 1176.16,549.491 1172,534.5C 1167.28,522.717 1162.28,511.051 1157,499.5C 1146.25,479.007 1135.25,458.674 1124,438.5C 1119.25,427.525 1116.75,416.191 1116.5,404.5C 1128.26,399.241 1136.43,390.574 1141,378.5C 1144.33,369.167 1147.67,359.833 1151,350.5C 1159.6,339.916 1170.44,332.416 1183.5,328C 1207.57,321.648 1231.57,314.982 1255.5,308C 1260.74,305.768 1265.74,303.268 1270.5,300.5 Z"/></g>
<g><path style="opacity:1" fill="#61120d" d="M 1271.5,302.5 C 1293.58,323.957 1310.75,348.957 1323,377.5C 1358.8,465.616 1361.97,554.949 1332.5,645.5C 1306.72,658.757 1279.38,664.257 1250.5,662C 1238.73,659.22 1232.23,651.72 1231,639.5C 1229.99,626.185 1229.32,612.852 1229,599.5C 1226.45,585.456 1218.29,576.789 1204.5,573.5C 1199.79,574.357 1195.79,576.523 1192.5,580C 1189.97,580.896 1187.81,580.396 1186,578.5C 1182.88,566.557 1179.88,554.557 1177,542.5C 1170.03,522.591 1161.7,503.257 1152,484.5C 1142.75,468.327 1133.75,451.994 1125,435.5C 1120.9,425.809 1119.07,415.809 1119.5,405.5C 1127.05,401.79 1133.21,396.457 1138,389.5C 1143.78,377.935 1148.45,365.935 1152,353.5C 1159.28,342.762 1169.12,335.262 1181.5,331C 1207.86,324.579 1233.86,317.246 1259.5,309C 1263.56,306.722 1267.56,304.555 1271.5,302.5 Z"/></g>
<g><path style="opacity:1" fill="#020101" d="M 644.5,388.5 C 667.335,386.552 675.835,396.552 670,418.5C 655.78,435.356 641.113,435.69 626,419.5C 622.057,412.098 623.057,405.431 629,399.5C 633.478,394.694 638.644,391.027 644.5,388.5 Z"/></g>
<g><path style="opacity:1" fill="#eec9be" d="M 1089.5,403.5 C 1090.83,403.5 1092.17,403.5 1093.5,403.5C 1095.49,411.964 1097.99,420.298 1101,428.5C 1108.57,443.983 1116.91,458.983 1126,473.5C 1148.92,516.924 1165.92,562.591 1177,610.5C 1180.96,630.806 1181.29,651.139 1178,671.5C 1170.77,692.392 1156.61,706.226 1135.5,713C 1117.13,719.341 1098.47,724.674 1079.5,729C 1064.23,742.636 1047.57,754.303 1029.5,764C 1018.36,768.852 1006.7,771.019 994.5,770.5C 974.004,769.667 953.837,766.667 934,761.5C 909.291,765.202 884.457,766.369 859.5,765C 829.056,759.032 803.222,744.865 782,722.5C 758.987,692.794 747.987,659.127 749,621.5C 754.147,599.099 757.48,576.432 759,553.5C 759.667,521.5 759.667,489.5 759,457.5C 758.218,446.996 757.384,436.496 756.5,426C 756.833,424.167 757.167,422.333 757.5,420.5C 774.887,415.423 792.554,411.756 810.5,409.5C 835.001,412.864 859.501,416.197 884,419.5C 898.862,417.615 913.696,415.448 928.5,413C 935.984,412.251 943.484,411.751 951,411.5C 991.282,416.048 1031.45,415.215 1071.5,409C 1077.8,407.764 1083.8,405.93 1089.5,403.5 Z"/></g>
<g><path style="opacity:1" fill="#050404" d="M 1008.5,419.5 C 1014.69,418.345 1018.86,420.678 1021,426.5C 1021.87,432.917 1021.54,439.251 1020,445.5C 1013.51,450.275 1008.17,449.275 1004,442.5C 1003.33,437.5 1003.33,432.5 1004,427.5C 1004.74,424.352 1006.24,421.685 1008.5,419.5 Z"/></g>
<g><path style="opacity:1" fill="#050404" d="M 863.5,428.5 C 872.523,428.017 877.356,432.351 878,441.5C 880.887,452.596 876.72,457.429 865.5,456C 863.239,453.228 861.739,450.062 861,446.5C 860.333,441.5 860.333,436.5 861,431.5C 862.045,430.627 862.878,429.627 863.5,428.5 Z"/></g>
<g><path style="opacity:1" fill="#6b1311" d="M 728.5,438.5 C 731.119,438.232 733.619,438.565 736,439.5C 736.431,453.003 736.931,466.503 737.5,480C 736.309,509.851 734.809,539.685 733,569.5C 715.97,618.256 720.97,664.59 748,708.5C 752.382,715.436 756.882,722.269 761.5,729C 761.241,730.261 760.574,731.261 759.5,732C 725.162,748.503 690.828,765.003 656.5,781.5C 647.299,775.476 638.799,768.476 631,760.5C 557.475,671.741 531.809,570.407 554,456.5C 554.739,455.426 555.739,454.759 557,454.5C 573.185,463.84 590.685,468.174 609.5,467.5C 624.054,467.383 638.387,465.55 652.5,462C 677.607,453.017 702.94,445.184 728.5,438.5 Z"/></g>
<g><path style="opacity:1" fill="#61120d" d="M 732.5,440.5 C 733.832,449.977 734.499,459.81 734.5,470C 734.55,488.194 733.884,506.36 732.5,524.5C 733.136,541.198 732.302,557.865 730,574.5C 716.796,610.462 717.463,646.129 732,681.5C 739.259,698.528 748.426,714.362 759.5,729C 725.229,745.802 690.895,762.635 656.5,779.5C 645.917,771.422 636.084,762.422 627,752.5C 598.918,717.014 577.584,677.681 563,634.5C 551.062,589.252 547.062,543.252 551,496.5C 551.543,484.403 552.876,472.403 555,460.5C 555.196,458.714 556.029,457.381 557.5,456.5C 566.259,462.543 575.926,466.377 586.5,468C 611.936,471.387 636.936,469.387 661.5,462C 684.902,453.37 708.569,446.203 732.5,440.5 Z"/></g>
<g><path style="opacity:1" fill="#86716b" d="M 836.5,467.5 C 835.833,466.833 835.167,466.167 834.5,465.5C 834.343,464.127 834.51,462.793 835,461.5C 836.128,463.345 836.628,465.345 836.5,467.5 Z"/></g>
<g><path style="opacity:1" fill="#110f0e" d="M 834.5,465.5 C 835.167,466.167 835.833,466.833 836.5,467.5C 838.172,498.612 841.005,529.612 845,560.5C 847.714,572.026 851.048,583.36 855,594.5C 860.922,606.679 867.089,618.679 873.5,630.5C 870.168,628 867.334,625 865,621.5C 860.501,613.164 855.501,605.164 850,597.5C 839.743,574.636 834.409,550.636 834,525.5C 833.526,505.496 833.692,485.496 834.5,465.5 Z"/></g>
<g><path style="opacity:1" fill="#554844" d="M 873.5,630.5 C 875.446,631.254 876.279,632.588 876,634.5C 874.519,633.529 873.685,632.196 873.5,630.5 Z"/></g>
<g><path style="opacity:1" fill="#100e0d" d="M 1118.5,672.5 C 1119.57,673.251 1119.74,674.251 1119,675.5C 1108.39,699.444 1091.56,717.611 1068.5,730C 1049.75,740.584 1029.75,746.917 1008.5,749C 1044.13,739.109 1075.3,721.609 1102,696.5C 1108.75,689.311 1114.25,681.311 1118.5,672.5 Z"/></g>
<g><path style="opacity:1" fill="#e5ad10" d="M 1919.5,720.5 C 1919.5,840.167 1919.5,959.833 1919.5,1079.5C 1279.5,1079.5 639.5,1079.5 -0.5,1079.5C -0.5,1004.17 -0.5,928.833 -0.5,853.5C 168.67,853.186 337.837,853.52 507,854.5C 519.845,854.077 532.679,853.41 545.5,852.5C 550.223,852.521 554.889,853.021 559.5,854C 580.397,865.241 602.731,870.075 626.5,868.5C 626.938,898.504 627.605,928.504 628.5,958.5C 643.761,960.966 659.094,962.966 674.5,964.5C 674.334,955.827 674.5,947.16 675,938.5C 685.982,947.981 696.816,957.648 707.5,967.5C 714.194,958.64 720.694,949.64 727,940.5C 727.5,947.158 727.666,953.825 727.5,960.5C 757.867,958.982 788.2,956.982 818.5,954.5C 818.343,953.127 818.51,951.793 819,950.5C 819.497,953.146 819.664,955.813 819.5,958.5C 838.817,962.14 858.151,962.306 877.5,959C 892.079,951.622 903.912,941.122 913,927.5C 912.416,929.7 912.582,931.867 913.5,934C 927.356,945.357 941.356,956.523 955.5,967.5C 960.011,951.122 964.678,934.788 969.5,918.5C 977.333,932.833 985.167,947.167 993,961.5C 999.35,948.136 1005.68,934.803 1012,921.5C 1017.01,939.889 1022.18,958.223 1027.5,976.5C 1038.47,964.86 1049.81,953.527 1061.5,942.5C 1073.62,961.501 1090.96,969.001 1113.5,965C 1127.91,962.723 1139.07,955.557 1147,943.5C 1146.78,945.587 1146.95,947.587 1147.5,949.5C 1160.88,958.19 1175.55,962.856 1191.5,963.5C 1215.49,963.761 1233.66,953.761 1246,933.5C 1246.39,942.845 1246.89,952.179 1247.5,961.5C 1263.16,960.994 1278.83,960.661 1294.5,960.5C 1295.21,945.848 1295.71,931.181 1296,916.5C 1297.7,915.594 1299.53,915.261 1301.5,915.5C 1300.93,929.159 1300.59,942.826 1300.5,956.5C 1315.38,954.287 1330.21,951.953 1345,949.5C 1349.5,897.52 1353.67,845.52 1357.5,793.5C 1339.83,794.204 1322.17,794.87 1304.5,795.5C 1303.89,817.836 1303.22,840.169 1302.5,862.5C 1298.45,863.184 1294.45,863.184 1290.5,862.5C 1292.41,839.874 1294.08,817.207 1295.5,794.5C 1277.83,796.251 1260.16,797.751 1242.5,799C 1241.17,798.333 1239.83,797.667 1238.5,797C 1244.79,790.532 1251.46,784.532 1258.5,779C 1276.32,764.558 1296.65,756.058 1319.5,753.5C 1326.68,754.419 1333.84,755.419 1341,756.5C 1346.66,756.169 1352.16,755.002 1357.5,753C 1372.67,746.163 1384.34,735.496 1392.5,721C 1568.17,720.5 1743.83,720.333 1919.5,720.5 Z"/></g>
<g><path style="opacity:1" fill="#030303" d="M 772.5,738.5 C 775.32,738.248 777.986,738.748 780.5,740C 789.444,749.275 799.778,756.609 811.5,762C 826.387,768.277 841.387,774.277 856.5,780C 881.348,785.093 906.015,784.26 930.5,777.5C 937.694,780.103 945.028,782.103 952.5,783.5C 948.188,800.565 943.688,817.565 939,834.5C 936.618,835.554 934.118,836.221 931.5,836.5C 928.924,816.155 918.59,801.322 900.5,792C 891.977,789.637 883.31,788.971 874.5,790C 856.355,792.929 838.355,796.429 820.5,800.5C 820.5,798.5 820.5,796.5 820.5,794.5C 789.154,797.014 757.821,799.68 726.5,802.5C 726.662,804.527 726.495,806.527 726,808.5C 720.751,800.933 713.584,796.099 704.5,794C 696.167,793.333 687.833,793.333 679.5,794C 670.465,795.152 661.465,796.152 652.5,797C 693.062,778.217 733.062,758.717 772.5,738.5 Z"/></g>
<g><path style="opacity:1" fill="#e5ad13" d="M 875.5,799.5 C 894.822,796.756 908.656,804.09 917,821.5C 928.548,856.669 924.548,890.003 905,921.5C 897.833,931.333 889.333,939.833 879.5,947C 875.768,949.133 871.768,950.466 867.5,951C 854.785,951.897 842.118,951.564 829.5,950C 828.588,913.237 827.921,876.404 827.5,839.5C 827.833,829.5 828.167,819.5 828.5,809.5C 844.231,805.889 859.897,802.555 875.5,799.5 Z"/></g>
<g><path style="opacity:1" fill="#e5ad14" d="M 1202.5,802.5 C 1214.12,801.52 1225.28,803.187 1236,807.5C 1234.76,817.87 1232.93,828.204 1230.5,838.5C 1230.17,839.167 1229.83,839.833 1229.5,840.5C 1217.46,833.868 1205.13,833.035 1192.5,838C 1187.85,841.788 1186.35,846.622 1188,852.5C 1189.73,854.617 1191.9,856.117 1194.5,857C 1233.96,863.437 1248.8,885.937 1239,924.5C 1232.55,939.945 1221.05,949.111 1204.5,952C 1188.53,955.424 1173.53,952.924 1159.5,944.5C 1158.37,942.926 1158.2,941.259 1159,939.5C 1161.33,931.167 1163.67,922.833 1166,914.5C 1166.41,914.043 1166.91,913.709 1167.5,913.5C 1177.39,920.081 1188.06,921.914 1199.5,919C 1210.48,913.72 1212.15,906.387 1204.5,897C 1197.37,893.287 1190.04,889.953 1182.5,887C 1162.59,873.554 1156.75,855.388 1165,832.5C 1171.86,815.186 1184.36,805.186 1202.5,802.5 Z"/></g>
<g><path style="opacity:1" fill="#e5ad13" d="M 666.5,916.5 C 666.44,915.957 666.107,915.624 665.5,915.5C 664.501,925.478 664.168,935.478 664.5,945.5C 664.5,948.167 664.5,950.833 664.5,953.5C 655.58,952.492 646.747,951.159 638,949.5C 637.242,902.83 636.409,856.163 635.5,809.5C 653.157,807.335 670.824,805.169 688.5,803C 706.011,801.336 717.511,808.836 723,825.5C 726.814,857.032 715.981,882.199 690.5,901C 701.634,909.635 712.301,918.801 722.5,928.5C 717.312,936.889 711.646,944.889 705.5,952.5C 692.48,940.478 679.48,928.478 666.5,916.5 Z"/></g>
<g><path style="opacity:1" fill="#f4db98" d="M 1336.5,804.5 C 1340.02,803.192 1343.69,803.192 1347.5,804.5C 1347.38,805.107 1347.04,805.44 1346.5,805.5C 1343.38,804.521 1340.04,804.187 1336.5,804.5 Z"/></g>
<g><path style="opacity:1" fill="#e5ad13" d="M 1065.5,803.5 C 1076.36,806.471 1087.36,808.805 1098.5,810.5C 1096.97,842.498 1095.8,874.498 1095,906.5C 1095.94,909.993 1097.28,913.326 1099,916.5C 1104.03,920.779 1108.7,920.446 1113,915.5C 1115.88,910.19 1117.55,904.523 1118,898.5C 1117.69,874.662 1116.85,850.828 1115.5,827C 1115.83,823.833 1116.17,820.667 1116.5,817.5C 1126.43,814.85 1136.43,812.517 1146.5,810.5C 1147.36,843.497 1147.53,876.497 1147,909.5C 1144.91,943.923 1126.74,959.09 1092.5,955C 1081.85,951.517 1074.18,944.683 1069.5,934.5C 1070.61,933.389 1071.28,932.055 1071.5,930.5C 1069.1,922.137 1066.6,913.803 1064,905.5C 1063.9,871.495 1064.4,837.495 1065.5,803.5 Z"/></g>
<g><path style="opacity:1" fill="#e5ad13" d="M 1336.5,804.5 C 1340.04,804.187 1343.38,804.521 1346.5,805.5C 1342.94,850.843 1339.28,896.176 1335.5,941.5C 1327.15,942.391 1318.82,943.391 1310.5,944.5C 1310.96,930.818 1311.62,917.152 1312.5,903.5C 1304.04,904.077 1295.7,905.41 1287.5,907.5C 1285.94,921.789 1285.27,936.122 1285.5,950.5C 1282.5,950.5 1279.5,950.5 1276.5,950.5C 1270.17,950.5 1263.83,950.5 1257.5,950.5C 1257.74,949.209 1257.4,948.209 1256.5,947.5C 1255.18,901.468 1253.68,855.468 1252,809.5C 1262.7,807.412 1273.53,806.079 1284.5,805.5C 1282.96,828.486 1281.63,851.486 1280.5,874.5C 1290.87,873.679 1301.2,872.679 1311.5,871.5C 1313.08,849.533 1314.08,827.533 1314.5,805.5C 1321.82,804.882 1329.15,804.549 1336.5,804.5 Z"/></g>
<g><path style="opacity:1" fill="#e5ad13" d="M 789.5,862.5 C 790.833,862.5 792.167,862.5 793.5,862.5C 793.5,863.833 793.5,865.167 793.5,866.5C 792.986,872.822 792.653,879.155 792.5,885.5C 783.799,885.77 775.133,886.437 766.5,887.5C 766.5,894.167 766.5,900.833 766.5,907.5C 780.818,906.102 795.151,904.768 809.5,903.5C 809.534,917.511 809.201,931.511 808.5,945.5C 784.847,947.092 761.18,948.425 737.5,949.5C 737.787,903.488 737.453,857.488 736.5,811.5C 760.845,809.62 785.179,807.62 809.5,805.5C 808.253,818.052 806.92,830.552 805.5,843C 792.837,843.651 780.17,844.151 767.5,844.5C 767.5,851.167 767.5,857.833 767.5,864.5C 774.827,863.773 782.16,863.107 789.5,862.5 Z"/></g>
<g><path style="opacity:1" fill="#e5ad14" d="M 957.5,803.5 C 958.376,803.369 959.043,803.702 959.5,804.5C 970.167,822.504 981.333,840.171 993,857.5C 1004.17,843.167 1015.33,828.833 1026.5,814.5C 1035.69,842.564 1044.19,870.898 1052,899.5C 1053.57,910.577 1055.24,921.577 1057,932.5C 1048.99,940.681 1040.82,948.681 1032.5,956.5C 1026.02,935.217 1019.85,913.884 1014,892.5C 1006.92,908.318 999.59,923.985 992,939.5C 983.702,923.042 975.202,906.709 966.5,890.5C 960.691,910.401 955.191,930.401 950,950.5C 941.288,942.948 932.454,935.615 923.5,928.5C 934.992,886.864 946.325,845.197 957.5,803.5 Z"/></g>
<g><path style="opacity:1" fill="#e7b125" d="M 1241.5,832.5 C 1243.2,845.991 1244.03,859.658 1244,873.5C 1231.94,858.88 1216.44,850.047 1197.5,847C 1198.33,846.085 1199.33,845.419 1200.5,845C 1213.73,844.132 1225.73,847.632 1236.5,855.5C 1239.27,848.097 1240.93,840.43 1241.5,832.5 Z"/></g>
<g><path style="opacity:1" fill="#fefdfb" d="M 662.5,884.5 C 661.539,882.735 661.205,880.735 661.5,878.5C 661.288,867.227 661.955,856.06 663.5,845C 669.647,841.059 676.313,839.392 683.5,840C 691.545,843.59 694.712,849.756 693,858.5C 687.912,873.086 677.745,881.752 662.5,884.5 Z"/></g>
<g><path style="opacity:1" fill="#fefdfa" d="M 870.5,844.5 C 877.258,843.251 882.758,845.251 887,850.5C 895.328,868.598 893.995,885.931 883,902.5C 875.884,910.476 867.051,915.476 856.5,917.5C 855.852,896.159 856.352,874.825 858,853.5C 861.811,849.832 865.978,846.832 870.5,844.5 Z"/></g>
<g><path style="opacity:1" fill="#f3d68b" d="M 789.5,862.5 C 790.919,861.549 792.585,861.216 794.5,861.5C 794.784,863.415 794.451,865.081 793.5,866.5C 793.5,865.167 793.5,863.833 793.5,862.5C 792.167,862.5 790.833,862.5 789.5,862.5 Z"/></g>
<g><path style="opacity:1" fill="#e6af1c" d="M 866.5,863.5 C 870.975,867.243 875.975,870.243 881.5,872.5C 882.782,885.27 878.115,895.27 867.5,902.5C 866.501,889.517 866.168,876.517 866.5,863.5 Z"/></g>
<g><path style="opacity:1" fill="#e5ae15" d="M 817.5,869.5 C 817.799,877.253 817.466,884.92 816.5,892.5C 811.493,892.751 806.493,893.084 801.5,893.5C 802.218,885.506 802.884,877.506 803.5,869.5C 807.356,869.029 811.189,868.362 815,867.5C 816.376,867.684 817.209,868.351 817.5,869.5 Z"/></g>
<g><path style="opacity:1" fill="#f1d17b" d="M 817.5,869.5 C 818.165,873.151 818.499,876.985 818.5,881C 818.49,885.229 817.823,889.062 816.5,892.5C 817.466,884.92 817.799,877.253 817.5,869.5 Z"/></g>
<g><path style="opacity:1" fill="#e9b93c" d="M 1106.5,865.5 C 1107.49,873.82 1108.16,882.32 1108.5,891C 1108.68,896.654 1107.84,902.154 1106,907.5C 1105.01,904.592 1104.51,901.592 1104.5,898.5C 1105.11,887.484 1105.78,876.484 1106.5,865.5 Z"/></g>
<g><path style="opacity:1" fill="#e5af1a" d="M 726.5,872.5 C 727.661,887.661 727.828,902.994 727,918.5C 719.888,913.022 713.054,907.189 706.5,901C 715.022,892.784 721.689,883.284 726.5,872.5 Z"/></g>
<g><path style="opacity:1" fill="#f4db97" d="M 661.5,878.5 C 661.205,880.735 661.539,882.735 662.5,884.5C 662.44,885.043 662.107,885.376 661.5,885.5C 660.203,883.027 660.203,880.693 661.5,878.5 Z"/></g>
<g><path style="opacity:1" fill="#e6b01e" d="M 1157.5,876.5 C 1161.98,884.476 1168.31,890.643 1176.5,895C 1183.29,898.651 1190.29,901.818 1197.5,904.5C 1198.61,905.723 1198.78,907.056 1198,908.5C 1193.67,910.314 1189.17,910.814 1184.5,910C 1176.18,906.845 1168.18,903.012 1160.5,898.5C 1159.6,901.144 1158.77,903.81 1158,906.5C 1157.5,896.506 1157.33,886.506 1157.5,876.5 Z"/></g>
<g><path style="opacity:1" fill="#f7e4b2" d="M 666.5,916.5 C 665.833,926.167 665.167,935.833 664.5,945.5C 664.168,935.478 664.501,925.478 665.5,915.5C 666.107,915.624 666.44,915.957 666.5,916.5 Z"/></g>
<g><path style="opacity:1" fill="#f0d077" d="M 1256.5,947.5 C 1257.4,948.209 1257.74,949.209 1257.5,950.5C 1263.83,950.5 1270.17,950.5 1276.5,950.5C 1270.02,951.491 1263.35,951.824 1256.5,951.5C 1256.5,950.167 1256.5,948.833 1256.5,947.5 Z"/></g>
</svg>
