<?xml version="1.0" encoding="UTF-8"?>
<!DOCTYPE svg PUBLIC "-//W3C//DTD SVG 1.1//EN" "http://www.w3.org/Graphics/SVG/1.1/DTD/svg11.dtd">
<svg xmlns="http://www.w3.org/2000/svg" version="1.1" width="1024px" height="1024px" style="shape-rendering:geometricPrecision; text-rendering:geometricPrecision; image-rendering:optimizeQuality; fill-rule:evenodd; clip-rule:evenodd" xmlns:xlink="http://www.w3.org/1999/xlink">
<g><path style="opacity:0.999" fill="#d71d11" d="M 768.5,436.5 C 767.115,437.574 765.949,438.907 765,440.5C 761.942,432.717 758.608,425.05 755,417.5C 747.956,410.952 740.79,404.619 733.5,398.5C 699.027,380.398 662.693,367.565 624.5,360C 610.744,358.182 597.077,355.849 583.5,353C 515.254,345.58 447.587,348.914 380.5,363C 365.85,368.283 350.85,372.617 335.5,376C 322.936,380.746 310.602,386.079 298.5,392C 288.561,396.609 279.728,402.775 272,410.5C 269.668,417.999 266.168,424.833 261.5,431C 260.815,434.594 259.815,438.094 258.5,441.5C 257.311,442.429 255.978,442.762 254.5,442.5C 254.066,438.959 252.399,435.625 249.5,432.5C 251.022,430.844 250.689,429.677 248.5,429C 249.895,426.925 249.562,425.092 247.5,423.5C 248.357,419.766 248.024,416.099 246.5,412.5C 247.239,412.631 247.906,412.464 248.5,412C 247.915,410.698 247.249,409.531 246.5,408.5C 246.81,402.242 246.476,396.076 245.5,390C 246.522,385.768 247.855,381.601 249.5,377.5C 248.833,376.5 248.167,375.5 247.5,374.5C 247.846,373.304 248.346,373.304 249,374.5C 250.884,368.249 251.717,362.083 251.5,356C 253.171,354.157 254.171,351.991 254.5,349.5C 255.404,348.791 255.737,347.791 255.5,346.5C 257.915,343.66 259.248,340.327 259.5,336.5C 270.68,305.622 289.68,276.789 316.5,250C 323.378,245.132 329.711,239.466 335.5,233C 347.5,224.667 359.5,216.333 371.5,208C 390.395,197.919 409.228,189.752 428,183.5C 429.609,184.15 431.109,183.65 432.5,182C 437.279,181.074 441.946,179.741 446.5,178C 455.474,176.527 464.307,174.694 473,172.5C 475.267,173.935 477.267,173.602 479,171.5C 479.333,172.167 479.667,172.833 480,173.5C 483.744,172.021 487.411,171.021 491,170.5C 563.855,167.785 629.022,188.951 686.5,234C 698.408,244.911 709.908,256.077 721,267.5C 734.55,285.412 746.55,304.412 757,324.5C 759.549,332.381 762.549,340.048 766,347.5C 770.658,364.775 773.491,382.275 774.5,400C 775.51,412.766 773.51,424.933 768.5,436.5 Z"/></g>
<g><path style="opacity:0.804" fill="#d71d10" d="M 259.5,336.5 C 258.833,335.167 258.833,335.167 259.5,336.5 Z"/></g>
<g><path style="opacity:0.243" fill="#d71d10" d="M 255.5,346.5 C 254.833,345.167 254.833,345.167 255.5,346.5 Z"/></g>
<g><path style="opacity:0.243" fill="#d71d10" d="M 254.5,349.5 C 253.833,348.167 253.833,348.167 254.5,349.5 Z"/></g>
<g><path style="opacity:0.998" fill="#fefffe" d="M 768.5,436.5 C 766.544,445.412 762.711,453.412 757,460.5C 746.566,472.792 734.066,482.292 719.5,489C 684.462,504.927 647.796,513.594 609.5,515C 608.167,514.333 606.833,513.667 605.5,513C 604.587,510.667 603.087,508.834 601,507.5C 597.462,498.149 599.295,489.982 606.5,483C 607.833,482.333 609.167,481.667 610.5,481C 644.217,477.982 676.55,469.649 707.5,456C 711.752,452.419 715.252,448.252 718,443.5C 719.16,435.325 715.993,429.491 708.5,426C 689.07,414.342 668.904,406.175 648,401.5C 548.344,376.206 449.177,378.039 350.5,407C 335.092,412.461 320.592,419.628 307,428.5C 300.048,438.161 301.215,446.661 310.5,454C 315.167,456.667 319.833,459.333 324.5,462C 349.64,471.562 375.64,477.562 402.5,480C 417.26,481.763 423.093,489.93 420,504.5C 416.892,511.774 411.392,515.774 403.5,516.5C 371.17,513.002 339.837,505.502 309.5,494C 298.675,488.757 288.342,482.757 278.5,476C 272.644,470.411 267.144,464.578 262,458.5C 259.212,453.305 256.712,447.971 254.5,442.5C 255.978,442.762 257.311,442.429 258.5,441.5C 259.815,438.094 260.815,434.594 261.5,431C 266.168,424.833 269.668,417.999 272,410.5C 279.728,402.775 288.561,396.609 298.5,392C 310.602,386.079 322.936,380.746 335.5,376C 350.85,372.617 365.85,368.283 380.5,363C 447.587,348.914 515.254,345.58 583.5,353C 597.077,355.849 610.744,358.182 624.5,360C 662.693,367.565 699.027,380.398 733.5,398.5C 740.79,404.619 747.956,410.952 755,417.5C 758.608,425.05 761.942,432.717 765,440.5C 765.949,438.907 767.115,437.574 768.5,436.5 Z"/></g>
<g><path style="opacity:0.804" fill="#d71d10" d="M 249.5,363.5 C 250.833,364.167 250.833,364.167 249.5,363.5 Z"/></g>
<g><path style="opacity:0.592" fill="#d71d10" d="M 248.5,368.5 C 249.833,369.167 249.833,369.167 248.5,368.5 Z"/></g>
<g><path style="opacity:0.333" fill="#000000" d="M 246.5,408.5 C 247.249,409.531 247.915,410.698 248.5,412C 247.906,412.464 247.239,412.631 246.5,412.5C 246.5,411.167 246.5,409.833 246.5,408.5 Z"/></g>
<g><path style="opacity:0.998" fill="#fefffe" d="M 467.5,414.5 C 480.783,413.302 488.783,419.136 491.5,432C 486.948,475.133 482.948,518.3 479.5,561.5C 467.968,559.617 456.635,556.784 445.5,553C 443.508,550.429 442.508,547.429 442.5,544C 446.564,506.857 450.398,469.691 454,432.5C 454.953,423.728 459.453,417.728 467.5,414.5 Z"/></g>
<g><path style="opacity:0.999" fill="#fefffe" d="M 350.5,680.5 C 353.225,679.287 355.559,677.454 357.5,675C 358.833,674.667 360.167,674.333 361.5,674C 411.174,673.253 460.84,673.586 510.5,675C 513.665,677.335 516.665,679.835 519.5,682.5C 521.223,694.542 516.223,702.375 504.5,706C 485.167,706.333 465.833,706.667 446.5,707C 447.496,737.426 447.829,767.926 447.5,798.5C 486.833,798.5 526.167,798.5 565.5,798.5C 557.477,717.674 549.31,637.007 541,556.5C 537.519,515.413 533.353,474.413 528.5,433.5C 528.482,426.37 531.482,420.87 537.5,417C 550.642,411.821 560.142,415.655 566,428.5C 577.891,551.529 590.058,674.529 602.5,797.5C 642.494,798.216 682.494,798.716 722.5,799C 733.904,803.304 738.404,811.471 736,823.5C 733.26,827.958 729.427,831.125 724.5,833C 692.833,833.333 661.167,833.667 629.5,834C 517.816,834.977 406.15,834.644 294.5,833C 284.317,826.381 281.817,817.547 287,806.5C 289.264,803.567 292.098,801.4 295.5,800C 330.371,798.871 365.205,798.038 400,797.5C 403.394,798.456 406.894,798.789 410.5,798.5C 411.477,767.865 411.81,737.198 411.5,706.5C 394.808,706.765 378.142,706.265 361.5,705C 353.226,701.477 348.893,695.143 348.5,686C 348.395,683.822 349.061,681.988 350.5,680.5 Z"/></g>
<g><path style="opacity:0.999" fill="#d81d11" d="M 510.5,636.5 C 519.011,650.22 522.011,665.553 519.5,682.5C 516.665,679.835 513.665,677.335 510.5,675C 460.84,673.586 411.174,673.253 361.5,674C 360.167,674.333 358.833,674.667 357.5,675C 355.559,677.454 353.225,679.287 350.5,680.5C 350.13,670.111 350.63,659.777 352,649.5C 360.639,624.501 376.972,605.835 401,593.5C 401.977,594.774 402.811,594.774 403.5,593.5C 405.898,593.741 407.898,593.074 409.5,591.5C 413.916,589.857 418.583,588.524 423.5,587.5C 452.96,585.54 478.46,595.874 500,618.5C 503.439,624.716 506.939,630.716 510.5,636.5 Z"/></g>
<g><path style="opacity:0.424" fill="#d71d10" d="M 409.5,591.5 C 408.833,590.167 408.833,590.167 409.5,591.5 Z"/></g>
<g><path style="opacity:0.835" fill="#d71d10" d="M 405.5,591.5 C 406.833,592.167 406.833,592.167 405.5,591.5 Z"/></g>
<g><path style="opacity:0.835" fill="#d71d10" d="M 403.5,593.5 C 402.833,592.167 402.833,592.167 403.5,593.5 Z"/></g>
<g><path style="opacity:0.835" fill="#d71d10" d="M 508.5,631.5 C 509.833,632.167 509.833,632.167 508.5,631.5 Z"/></g>
<g><path style="opacity:0.424" fill="#d71d10" d="M 510.5,635.5 C 511.833,636.167 511.833,636.167 510.5,635.5 Z"/></g>
</svg>
