<?xml version="1.0" encoding="UTF-8"?>
<!DOCTYPE svg PUBLIC "-//W3C//DTD SVG 1.1//EN" "http://www.w3.org/Graphics/SVG/1.1/DTD/svg11.dtd">
<svg xmlns="http://www.w3.org/2000/svg" version="1.1" width="1024px" height="1024px" style="shape-rendering:geometricPrecision; text-rendering:geometricPrecision; image-rendering:optimizeQuality; fill-rule:evenodd; clip-rule:evenodd" xmlns:xlink="http://www.w3.org/1999/xlink">
<g><path style="opacity:1" fill="#000000" d="M 254.5,349.5 C 255.404,348.791 255.737,347.791 255.5,346.5C 257.915,343.66 259.248,340.327 259.5,336.5C 270.68,305.622 289.68,276.789 316.5,250C 323.378,245.132 329.711,239.466 335.5,233C 347.5,224.667 359.5,216.333 371.5,208C 390.395,197.919 409.228,189.752 428,183.5C 429.609,184.15 431.109,183.65 432.5,182C 437.279,181.074 441.946,179.741 446.5,178C 518.139,161.701 587.139,172.701 653.5,211C 664.26,218.33 675.26,225.997 686.5,234C 699.772,245.939 712.272,258.439 724,271.5C 731.487,282.97 739.153,294.303 747,305.5C 750.078,311.991 753.412,318.325 757,324.5C 759.549,332.381 762.549,340.048 766,347.5C 770.658,364.775 773.491,382.275 774.5,400C 775.718,430.693 764.718,456.026 741.5,476C 731.825,482.173 721.825,487.84 711.5,493C 684.508,502.999 656.842,510.333 628.5,515C 622.167,515.667 615.833,515.667 609.5,515C 608.167,514.333 606.833,513.667 605.5,513C 604.587,510.667 603.087,508.834 601,507.5C 597.462,498.149 599.295,489.982 606.5,483C 607.833,482.333 609.167,481.667 610.5,481C 644.217,477.982 676.55,469.649 707.5,456C 711.752,452.419 715.252,448.252 718,443.5C 719.076,438.399 717.91,433.899 714.5,430C 693.494,416.271 671.327,406.771 648,401.5C 548.344,376.206 449.177,378.039 350.5,407C 335.368,412.481 321.034,419.481 307.5,428C 300.002,437.693 301.002,446.36 310.5,454C 324.234,462.11 338.9,468.11 354.5,472C 372.077,475.541 389.744,478.541 407.5,481C 418.848,484.856 423.015,492.69 420,504.5C 416.892,511.774 411.392,515.774 403.5,516.5C 371.17,513.002 339.837,505.502 309.5,494C 300.339,489.254 291.339,484.254 282.5,479C 269.309,468.418 259.309,455.418 252.5,440C 252.957,439.586 253.291,439.086 253.5,438.5C 252.35,436.391 251.016,434.391 249.5,432.5C 251.022,430.844 250.689,429.677 248.5,429C 249.895,426.925 249.562,425.092 247.5,423.5C 247.987,422.554 248.32,421.554 248.5,420.5C 247.024,410.339 246.024,400.172 245.5,390C 246.522,385.768 247.855,381.601 249.5,377.5C 248.833,376.5 248.167,375.5 247.5,374.5C 247.846,373.304 248.346,373.304 249,374.5C 250.884,368.249 251.717,362.083 251.5,356C 253.171,354.157 254.171,351.991 254.5,349.5 Z"/></g>
<g><path style="opacity:0.961" fill="#d71d10" d="M 259.5,336.5 C 258.833,335.167 258.833,335.167 259.5,336.5 Z"/></g>
<g><path style="opacity:0.427" fill="#d71d10" d="M 255.5,346.5 C 254.833,345.167 254.833,345.167 255.5,346.5 Z"/></g>
<g><path style="opacity:0.427" fill="#d71d10" d="M 254.5,349.5 C 253.833,348.167 253.833,348.167 254.5,349.5 Z"/></g>
<g><path style="opacity:0.961" fill="#d71d10" d="M 249.5,363.5 C 250.833,364.167 250.833,364.167 249.5,363.5 Z"/></g>
<g><path style="opacity:0.835" fill="#d71d10" d="M 248.5,368.5 C 249.833,369.167 249.833,369.167 248.5,368.5 Z"/></g>
<g><path style="opacity:1" fill="#000000" d="M 467.5,414.5 C 480.783,413.302 488.783,419.136 491.5,432C 486.948,475.133 482.948,518.3 479.5,561.5C 467.968,559.617 456.635,556.784 445.5,553C 443.508,550.429 442.508,547.429 442.5,544C 446.564,506.857 450.398,469.691 454,432.5C 454.953,423.728 459.453,417.728 467.5,414.5 Z"/></g>
<g><path style="opacity:1" fill="#000000" d="M 403.5,593.5 C 405.898,593.741 407.898,593.074 409.5,591.5C 413.916,589.857 418.583,588.524 423.5,587.5C 452.96,585.54 478.46,595.874 500,618.5C 503.439,624.716 506.939,630.716 510.5,636.5C 516.713,646.105 520.046,657.105 520.5,669.5C 519.484,676.501 519.318,683.501 520,690.5C 517.445,698.388 512.279,703.555 504.5,706C 485.167,706.333 465.833,706.667 446.5,707C 447.496,737.426 447.829,767.926 447.5,798.5C 486.833,798.5 526.167,798.5 565.5,798.5C 557.477,717.674 549.31,637.007 541,556.5C 537.519,515.413 533.353,474.413 528.5,433.5C 528.482,426.37 531.482,420.87 537.5,417C 550.642,411.821 560.142,415.655 566,428.5C 577.891,551.529 590.058,674.529 602.5,797.5C 642.494,798.216 682.494,798.716 722.5,799C 733.904,803.304 738.404,811.471 736,823.5C 733.26,827.958 729.427,831.125 724.5,833C 692.833,833.333 661.167,833.667 629.5,834C 517.816,834.977 406.15,834.644 294.5,833C 284.317,826.381 281.817,817.547 287,806.5C 289.264,803.567 292.098,801.4 295.5,800C 330.371,798.871 365.205,798.038 400,797.5C 403.394,798.456 406.894,798.789 410.5,798.5C 411.477,767.865 411.81,737.198 411.5,706.5C 394.808,706.765 378.142,706.265 361.5,705C 353.226,701.477 348.893,695.143 348.5,686C 348.454,684.272 348.954,682.772 350,681.5C 350.125,670.785 350.792,660.118 352,649.5C 360.639,624.501 376.972,605.835 401,593.5C 401.977,594.774 402.811,594.774 403.5,593.5 Z"/></g>
<g><path style="opacity:0.667" fill="#d71d10" d="M 409.5,591.5 C 408.833,590.167 408.833,590.167 409.5,591.5 Z"/></g>
<g><path style="opacity:0.973" fill="#d71d10" d="M 405.5,591.5 C 406.833,592.167 406.833,592.167 405.5,591.5 Z"/></g>
<g><path style="opacity:0.973" fill="#d71d10" d="M 403.5,593.5 C 402.833,592.167 402.833,592.167 403.5,593.5 Z"/></g>
<g><path style="opacity:0.973" fill="#d71d10" d="M 508.5,631.5 C 509.833,632.167 509.833,632.167 508.5,631.5 Z"/></g>
<g><path style="opacity:0.667" fill="#d71d10" d="M 510.5,635.5 C 511.833,636.167 511.833,636.167 510.5,635.5 Z"/></g>
</svg>
